<svg xmlns="http://www.w3.org/2000/svg" width="115" height="100" viewBox="0 0 115 100">
  <g id="Group_54" data-name="Group 54" transform="translate(-274 -905)">
    <rect id="Rectangle_9" data-name="Rectangle 9" width="115" height="100" rx="24" transform="translate(274 905)" fill="#090e38"/>
    <g id="Group_9" data-name="Group 9" transform="translate(-342.75 770)">
      <g id="Group_1" data-name="Group 1" transform="translate(649.75 154)">
        <path id="Path_4" data-name="Path 4" d="M149.695,367.416a2.507,2.507,0,0,1,1.96.887,3.141,3.141,0,0,1,.784,2.155v6.169a3.03,3.03,0,0,1-.784,2.07,2.507,2.507,0,0,1-1.96.887H105.414a2.544,2.544,0,0,1-1.921-.887,2.949,2.949,0,0,1-.823-2.07v-6.169a3.054,3.054,0,0,1,.823-2.155,2.544,2.544,0,0,1,1.921-.887Zm-44.281-13.1a2.544,2.544,0,0,1-1.921-.887,2.948,2.948,0,0,1-.823-2.07v-6.338a2.949,2.949,0,0,1,.823-2.07,2.545,2.545,0,0,1,1.921-.887h40.753a2.626,2.626,0,0,1,2,.887,2.949,2.949,0,0,1,.823,2.07v6.338a2.948,2.948,0,0,1-.823,2.07,2.625,2.625,0,0,1-2,.887Zm44.281-37.435a2.507,2.507,0,0,1,1.96.887,3.03,3.03,0,0,1,.784,2.07v6.169a3.141,3.141,0,0,1-.784,2.155,2.507,2.507,0,0,1-1.96.887H105.414a2.545,2.545,0,0,1-1.921-.887,3.053,3.053,0,0,1-.823-2.155v-6.169a2.948,2.948,0,0,1,.823-2.07,2.544,2.544,0,0,1,1.921-.887Z" transform="translate(-102.438 -316.884)" fill="#faf9f6"/>
        <g id="Color_logo_-_no_background" data-name="Color logo - no background" transform="translate(11.288 0) rotate(90)">
          <g id="SvgjsG1023" transform="translate(0 0)">
            <path id="Path_4-2" data-name="Path 4" d="M58.809,0a4.543,4.543,0,0,1,2.779.823A2.367,2.367,0,0,1,62.7,2.744V8.466a2.426,2.426,0,0,1-1.112,2,4.543,4.543,0,0,1-2.779.823H3.891a4.606,4.606,0,0,1-2.724-.823A2.4,2.4,0,0,1,0,8.466V2.744A2.345,2.345,0,0,1,1.167.823,4.605,4.605,0,0,1,3.891,0Z" transform="translate(0 0)" fill="#faf9f6"/>
          </g>
        </g>
      </g>
    </g>
  </g>
</svg>
